#!OML:ASF I:\Actors\actors\Patient Classification 2\Patient 1\Session 1\actor1.ASF
:FULLY-SPECIFIED
:DEGREES
158
root -0.519351 18.7275 5.54596 3.26394 -1.62303 -2.74714
lowerback 2.33485 0.365833 0.937433
upperback -0.743238 0.505536 -0.59715
thorax -2.0573 0.236435 -1.15847
lowerneck -14.0117 -2.55162 -1.62212
upperneck 32.5139 -4.18289 2.55797
head 13.3627 -1.7039 0.640777
rclavicle -1.04859e-014 1.23246e-014
rhumerus -20.5924 31.6193 -89.9395
rradius 90.0984
rwrist 18.5573
rhand -10.9211 -61.6772
rfingers 7.12502
rthumb 15.0965 -268.893
lclavicle -1.04859e-014 1.23246e-014
lhumerus -8.63639 -32.0524 85.5023
lradius 74.054
lwrist -5.84321
lhand 14.4112 -29.908
lfingers 7.12502
lthumb 39.2971 -4.47371
rfemur 0 0 0
rtibia 0
rfoot 0 0
rtoes 0
lfemur -6.93771 -5.96037 -11.8749
ltibia 22.7917
lfoot -23.1104 15.1354
ltoes -55.1211
159
root -0.520027 18.7303 5.5463 3.31374 -1.34343 -2.45767
lowerback 2.49918 0.250604 0.58684
upperback -0.789935 0.338637 -0.722078
thorax -2.20325 0.155893 -1.08444
lowerneck -13.8889 -2.55297 -1.48334
upperneck 32.4705 -4.20265 2.49319
head 13.3125 -1.70656 0.589581
rclavicle 5.14355e-015 3.97569e-015
rhumerus -21.0955 31.7406 -90.2142
rradius 90.6555
rwrist 18.4447
rhand -10.872 -61.6136
rfingers 7.12502
rthumb 15.1438 -268.96
lclavicle 5.14355e-015 3.97569e-015
lhumerus -8.73491 -32.0245 85.4502
lradius 74.0804
lwrist -5.8898
lhand 14.3142 -29.8722
lfingers 7.12502
lthumb 39.2057 -4.41141
rfemur 0 0 0
rtibia 0
rfoot 0 0
rtoes 0
lfemur -7.11578 -6.1463 -12.1747
ltibia 22.8658
lfoot -23.0437 15.1745
ltoes -55.2577
160
root -0.521552 18.7317 5.54672 3.30592 -1.25955 -2.41869
lowerback 2.73227 0.2028 0.500489
upperback -0.833213 0.270905 -0.779176
thorax -2.38042 0.121898 -1.09307
lowerneck -13.7752 -2.51523 -1.35068
upperneck 32.4617 -4.16512 2.4328
head 13.2778 -1.68369 0.550096
rclavicle 2.17421e-014 -9.54166e-015
rhumerus -21.5188 31.8415 -90.5185
rradius 90.9697
rwrist 18.2588
rhand -11.4511 -61.122
rfingers 7.12502
rthumb 14.5859 -269.411
lclavicle 2.17421e-014 -9.54166e-015
lhumerus -8.85661 -32.019 85.4098
lradius 74.1062
lwrist -5.81824
lhand 14.3043 -29.7639
lfingers 7.12502
lthumb 39.1964 -4.30045
rfemur 0 0 0
rtibia 0
rfoot 0 0
rtoes 0
lfemur -7.10412 -6.21449 -12.2012
ltibia 22.799
lfoot -23.0068 15.1715
ltoes -55.297
161
root -0.524669 18.7323 5.55095 3.23859 -1.24249 -2.69679
lowerback 2.95281 0.195967 0.685308
upperback -0.829956 0.271318 -0.697622
thorax -2.50065 0.119366 -1.11419
lowerneck -13.7586 -2.48916 -1.36702
upperneck 32.5155 -4.12664 2.44104
head 13.2969 -1.66735 0.562422
rclavicle 5.73991e-015 1.19271e-014
rhumerus -21.7654 31.9577 -90.6554
rradius 91.0858
rwrist 18.1115
rhand -11.3259 -60.7348
rfingers 7.12502
rthumb 14.7066 -269.807
lclavicle 5.73991e-015 1.19271e-014
lhumerus -8.92734 -31.984 85.4929
lradius 74.0982
lwrist -5.7944
lhand 14.3561 -29.6851
lfingers 7.12502
lthumb 39.2452 -4.23572
rfemur 0 0 0
rtibia 0
rfoot 0 0
rtoes 0
lfemur -6.98795 -6.23332 -11.8782
ltibia 22.7209
lfoot -22.9899 15.1615
ltoes -55.2717
162
root -0.533404 18.7349 5.56014 3.30605 -1.31859 -2.64319
lowerback 2.93274 0.222043 0.376938
upperback -0.836314 0.295164 -0.648773
thorax -2.49699 0.136361 -0.892136
lowerneck -13.8552 -2.48214 -1.44805
upperneck 32.6517 -4.10452 2.46098
head 13.3786 -1.66236 0.58677
rclavicle 4.77083e-015 2.38542e-015
rhumerus -21.7854 32.103 -90.6512
rradius 90.9253
rwrist 17.9944
rhand -10.598 -61.1182
rfingers 7.12502
rthumb 15.4077 -269.476
lclavicle 4.77083e-015 2.38542e-015
lhumerus -8.96342 -31.9139 85.6144
lradius 74.1086
lwrist -5.90025
lhand 14.3914 -29.5762
lfingers 7.12502
lthumb 39.2784 -4.13651
rfemur 0 0 0
rtibia 0
rfoot 0 0
rtoes 0
lfemur -7.01535 -6.23721 -11.9176
ltibia 22.6699
lfoot -22.9583 15.3189
ltoes -55.2954
163
root -0.545742 18.7386 5.57424 3.5147 -1.45493 -2.28225
lowerback 2.65861 0.269904 -0.31707
upperback -0.85921 0.333167 -0.676652
thorax -2.36943 0.165773 -0.531944
lowerneck -13.9376 -2.47617 -1.48353
upperneck 32.7677 -4.0864 2.45216
head 13.4469 -1.65781 0.591473
rclavicle -2.60905e-015 3.18055e-015
rhumerus -21.5968 32.212 -90.6304
rradius 90.4338
rwrist 17.8556
rhand -11.3803 -61.587
rfingers 7.12502
rthumb 14.6541 -268.951
lclavicle -2.60905e-015 3.18055e-015
lhumerus -8.96202 -31.8839 85.693
lradius 74.1064
lwrist -5.98309
lhand 14.4499 -29.5269
lfingers 7.12502
lthumb 39.3336 -4.1032
rfemur 0 0 0
rtibia 0
rfoot 0 0
rtoes 0
lfemur -7.19741 -6.24594 -12.2897
ltibia 22.6579
lfoot -22.9773 15.5189
ltoes -55.2711
164
root -0.550592 18.7395 5.58961 3.6274 -1.57386 -2.37465
lowerback 2.45836 0.329672 -0.397132
upperback -0.852769 0.413005 -0.619047
thorax -2.25068 0.207217 -0.430259
lowerneck -13.9077 -2.49234 -1.4655
upperneck 32.7696 -4.09295 2.38747
head 13.439 -1.66728 0.562248
rclavicle 9.46712e-015 -6.36111e-015
rhumerus -21.2608 32.1761 -90.593
rradius 89.6675
rwrist 17.9593
rhand -11.9698 -61.902
rfingers 7.12502
rthumb 14.0861 -268.595
lclavicle 9.46712e-015 -6.36111e-015
lhumerus -8.98259 -31.9393 85.7901
lradius 74.1084
lwrist -5.94494
lhand 14.5032 -29.5669
lfingers 7.12502
lthumb 39.3839 -4.15788
rfemur 0 0 0
rtibia 0
rfoot 0 0
rtoes 0
lfemur -7.23094 -6.17919 -12.1759
ltibia 22.6271
lfoot -23.0181 15.5612
ltoes -55.1764
165
root -0.550306 18.7389 5.59951 3.65139 -1.76653 -2.657
lowerback 2.43859 0.421873 -0.187644
upperback -0.858897 0.544951 -0.532688
thorax -2.24412 0.27073 -0.464728
lowerneck -13.8792 -2.52747 -1.49393
upperneck 32.8023 -4.13913 2.39206
head 13.449 -1.69021 0.562289
rclavicle 2.60905e-014 -5.56597e-015
rhumerus -20.8886 32.045 -90.5647
rradius 88.6809
rwrist 18.2222
rhand -11.7276 -62.0288
rfingers 7.12502
rthumb 14.3195 -268.485
lclavicle 2.60905e-014 -5.56597e-015
lhumerus -9.05726 -32.0216 85.9293
lradius 74.1268
lwrist -5.85031
lhand 14.5215 -29.5853
lfingers 7.12502
lthumb 39.4011 -4.18132
rfemur 0 0 0
rtibia 0
rfoot 0 0
rtoes 0
lfemur -7.14243 -6.01207 -11.8729
ltibia 22.5828
lfoot -23.0524 15.577
ltoes -55.1436
166
root -0.549656 18.7392 5.60562 3.70841 -2.0289 -2.63893
lowerback 2.42386 0.535268 -0.279576
upperback -0.883637 0.693125 -0.530159
thorax -2.26142 0.345983 -0.417058
lowerneck -13.9545 -2.55773 -1.64478
upperneck 32.9365 -4.19664 2.54397
head 13.5338 -1.71124 0.638887
rclavicle 1.4387e-014 -7.95139e-015
rhumerus -20.4739 31.9125 -90.5712
rradius 87.5317
rwrist 18.3752
rhand -11.4375 -62.0246
rfingers 7.12502
rthumb 14.599 -268.509
lclavicle 1.4387e-014 -7.95139e-015
lhumerus -9.08338 -32.0791 86.0793
lradius 74.1012
lwrist -5.80775
lhand 14.4921 -29.6147
lfingers 7.12502
lthumb 39.3733 -4.20262
rfemur 0 0 0
rtibia 0
rfoot 0 0
rtoes 0
lfemur -7.10256 -5.93417 -11.9241
ltibia 22.5608
lfoot -23.1647 15.7215
ltoes -55.106
167
root -0.547943 18.7394 5.61027 3.76578 -2.27998 -2.43187
lowerback 2.38879 0.644641 -0.525777
upperback -0.876034 0.829745 -0.595838
thorax -2.23581 0.417179 -0.351875
lowerneck -14.0983 -2.58447 -1.81618
upperneck 33.0583 -4.24768 2.7138
head 13.6297 -1.72879 0.726579
rclavicle -6.75868e-015 5.56597e-015
rhumerus -19.9817 31.8176 -90.5752
rradius 86.3227
rwrist 18.396
rhand -11.1106 -62.1437
rfingers 7.12502
rthumb 14.9139 -268.413
lclavicle -6.75868e-015 5.56597e-015
lhumerus -8.99052 -32.1534 86.143
lradius 74.0702
lwrist -5.8118
lhand 14.3904 -29.558
lfingers 7.12502
lthumb 39.2775 -4.11803
rfemur 0 0 0
rtibia 0
rfoot 0 0
rtoes 0
lfemur -7.04215 -5.96892 -12.1985
ltibia 22.4753
lfoot -23.2963 15.9214
ltoes -55.0004
168
root -0.54646 18.7386 5.6152 3.75617 -2.53318 -2.29071
lowerback 2.40568 0.755079 -0.661813
upperback -0.823968 0.971217 -0.67054
thorax -2.19259 0.489057 -0.358084
lowerneck -14.2797 -2.6244 -1.92925
upperneck 33.1252 -4.31433 2.83111
head 13.7079 -1.75294 0.780302
rclavicle -1.84124e-014 6.36111e-015
rhumerus -19.5893 31.7596 -90.6116
rradius 85.2701
rwrist 18.2905
rhand -11.4541 -62.1595
rfingers 7.12502
rthumb 14.583 -268.373
lclavicle -1.84124e-014 6.36111e-015
lhumerus -8.81851 -32.2551 86.1024
lradius 74.0469
lwrist -5.87122
lhand 14.264 -29.4571
lfingers 7.12502
lthumb 39.1585 -3.98266
rfemur 0 0 0
rtibia 0
rfoot 0 0
rtoes 0
lfemur -6.88122 -5.91995 -12.3933
ltibia 22.3367
lfoot -23.3608 16.0475
ltoes -54.9167
169
root -0.569952 18.7343 5.63776 3.55261 -2.50663 -2.2478
lowerback 2.3441 0.767165 -1.03355
upperback -0.663191 0.978446 -0.640287
thorax -1.9998 0.497035 -0.116675
lowerneck -14.4227 -2.64695 -1.93952
upperneck 33.1333 -4.35214 2.85718
head 13.7455 -1.7651 0.784613
rclavicle 1.27222e-014 2.38542e-015
rhumerus -19.4788 31.791 -90.7816
rradius 84.5566
rwrist 18.2132
rhand -12.2188 -62.0965
rfingers 7.12502
rthumb 13.8461 -268.384
lclavicle 1.27222e-014 2.38542e-015
lhumerus -8.69789 -32.3064 86.0392
lradius 74.0342
lwrist -5.98417
lhand 14.2029 -29.4865
lfingers 7.12502
lthumb 39.1008 -3.99545
rfemur 0 0 0
rtibia 0
rfoot 0 0
rtoes 0
lfemur -6.48499 -5.54412 -12.3331
ltibia 22.1957
lfoot -23.2101 15.6553
ltoes -54.9799
